<svg xmlns="http://www.w3.org/2000/svg" width="730" height="364" viewBox="0 0 730 364">
    <g fill="none" fill-rule="evenodd">
        <path fill="#ECECEC" d="M0 0h730v364H0z"/>
        <path fill="#C5C8D8" d="M424.348 123H305.652c-3.123 0-5.652 2.515-5.652 5.619v106.762c0 3.104 2.53 5.619 5.652 5.619h118.696c3.123 0 5.652-2.515 5.652-5.619V128.619c0-3.104-2.53-5.619-5.652-5.619zm0 73.048l-29.09-24.463c-1.302-1.287-3.181-.958-4.142.16l-28.275 32.793 10.637 16.093-40.625-32.397a2.844 2.844 0 0 0-3.764.208l-23.437 18.844v-75.857a2.817 2.817 0 0 1 2.826-2.81h113.044a2.817 2.817 0 0 1 2.826 2.81v64.619zm-67.826-22.477c6.243 0 11.304-5.031 11.304-11.238 0-6.206-5.061-11.238-11.304-11.238s-11.305 5.032-11.305 11.238c0 6.207 5.062 11.238 11.305 11.238z"/>
    </g>
</svg>
