<svg xmlns="http://www.w3.org/2000/svg" width="21" height="19" viewBox="0 0 21 19">
    <path fill="#FFF" fill-rule="nonzero" d="M5.895 1.316c-.628 0-1.201.096-1.72.288a4.148 4.148 0 0 0-1.453.946c-.45.466-.798.994-1.044 1.583a4.765 4.765 0 0 0-.368 1.85 4.825 4.825 0 0 0 1.412 3.413c.164.166.604.642 1.32 1.43.717.789 1.488 1.638 2.313 2.55.826.912 1.6 1.775 2.323 2.591a111.2 111.2 0 0 0 1.392 1.552.64.64 0 0 0 .614.134.624.624 0 0 0 .246-.134c.819-.904 1.661-1.823 2.528-2.755.866-.932 1.65-1.782 2.353-2.55.703-.767 1.283-1.398 1.74-1.891.457-.494.7-.748.727-.761.45-.466.798-.994 1.044-1.584.245-.59.368-1.206.368-1.85a4.825 4.825 0 0 0-1.412-3.413c-.478-.48-.976-.834-1.494-1.06a4.255 4.255 0 0 0-1.72-.339c-.464 0-1.02.192-1.668.576-.648.384-1.3.911-1.954 1.583l-.922.946-.941-.925c-.942-.933-1.71-1.529-2.303-1.79-.593-.26-1.054-.39-1.381-.39zm0-1.316C6.7 0 7.5.26 8.3.781a14.16 14.16 0 0 1 2.2 1.769A12.316 12.316 0 0 1 12.68.78C13.492.261 14.287 0 15.064 0c.805 0 1.55.147 2.231.442.683.295 1.317.744 1.904 1.347.6.59 1.05 1.265 1.35 2.025.3.761.451 1.532.451 2.314 0 .781-.15 1.552-.45 2.313-.3.76-.75 1.443-1.351 2.046l-1.177 1.265c-.771.829-1.61 1.74-2.518 2.734-.907.994-1.74 1.9-2.497 2.715l-1.136 1.223a1.934 1.934 0 0 1-2.108.432 1.937 1.937 0 0 1-.634-.432l-1.054-1.162c-.703-.774-1.491-1.648-2.364-2.621a600.689 600.689 0 0 0-3.91-4.318 6.028 6.028 0 0 1-1.35-2.036A6.203 6.203 0 0 1 0 5.973c0-.788.15-1.559.45-2.313.3-.754.75-1.432 1.351-2.036C2.374 1.05 3.005.634 3.694.38a6.32 6.32 0 0 1 2.2-.38z"/>
</svg>
