<svg xmlns="http://www.w3.org/2000/svg" xmlns:xlink="http://www.w3.org/1999/xlink" width="319" height="36" viewBox="0 0 319 36">
    <defs>
        <path id="a" d="M.401.168h16.284v20.606H.401z"/>
    </defs>
    <g fill="none" fill-rule="evenodd">
        <path fill="#00ACF0" d="M2.345 0h5.58l5.62 13.842C14.19 15.499 15 17.944 15 17.944h.08s.769-2.445 1.416-4.102L22.116 0h5.58L30 28h-5.175l-1.213-15.656c-.121-1.854-.04-4.338-.04-4.338h-.081s-.85 2.72-1.537 4.338l-4.65 10.845h-4.569L8.127 12.344C7.439 10.727 6.55 7.966 6.55 7.966h-.081s.08 2.524-.04 4.378L5.216 28H0L2.345 0zM40.292 25.107c2.71 0 4.652-2.831 4.652-5.27v-.472h-.89c-2.63 0-6.876.354-6.876 3.146 0 1.337 1.01 2.596 3.114 2.596m3.924-9.163h.687v-.275c0-2.635-1.699-3.54-3.964-3.54-2.953 0-5.663 1.927-5.663 1.927l-1.941-3.578S36.53 8 41.425 8C46.845 8 50 10.91 50 15.983v12.545h-4.733v-1.652c0-.786.081-1.415.081-1.415h-.08c.04 0-1.578 3.539-6.27 3.539C35.317 29 32 26.759 32 22.747c0-6.37 8.859-6.803 12.216-6.803M55.362 22.55s2.28 2.203 5.658 2.203c1.466 0 2.728-.63 2.728-1.809 0-2.989-10.097-2.595-10.097-9.045 0-3.736 3.461-5.899 7.94-5.899 4.681 0 6.961 2.281 6.961 2.281l-1.913 3.697s-1.914-1.73-5.09-1.73c-1.343 0-2.645.55-2.645 1.808 0 2.832 10.096 2.478 10.096 8.928C69 26.326 65.987 29 61.061 29 55.891 29 53 26.051 53 26.051l2.362-3.5zM72 0h5.027v9.701c0 .986-.08 1.696-.08 1.696h.08c.99-1.932 3.444-3.983 6.967-3.983 4.473 0 7.006 2.327 7.006 7.65V28h-4.987V16.09c0-2.445-.634-4.101-3.207-4.101-2.652 0-4.71 1.735-5.462 4.18-.238.789-.317 1.656-.317 2.602V28H72V0zM102.292 25.107c2.71 0 4.652-2.831 4.652-5.27v-.472h-.89c-2.63 0-6.876.354-6.876 3.146 0 1.337 1.01 2.596 3.114 2.596m3.924-9.163h.687v-.275c0-2.635-1.699-3.54-3.964-3.54-2.953 0-5.663 1.927-5.663 1.927l-1.941-3.578S98.53 8 103.425 8c5.42 0 8.575 2.91 8.575 7.983v12.545h-4.733v-1.652c0-.786.081-1.415.081-1.415h-.08c.04 0-1.578 3.539-6.27 3.539C97.317 29 94 26.759 94 22.747c0-6.37 8.859-6.803 12.216-6.803M125.881 24.702c2.767 0 5.06-2.29 5.06-6.346 0-3.896-2.056-6.426-5.02-6.426-2.609 0-5.06 1.928-5.06 6.466 0 3.173 1.66 6.306 5.02 6.306zM116 0h5.02v8.797c0 1.004-.08 1.726-.08 1.726h.08s1.778-2.972 6.047-2.972c5.454 0 8.933 4.379 8.933 10.725C136 24.782 132.087 29 126.751 29c-4.19 0-6.008-3.053-6.008-3.053h-.079s.079.603.079 1.406v1.165H116V0zM139 0h5.117v20.834c0 2.192.771 2.74 2.112 2.74.405 0 .771-.038.771-.038v4.346s-.771.118-1.624.118c-2.843 0-6.376-.705-6.376-6.422V0zM162.986 16.023c-.078-2.714-1.763-4.169-3.957-4.169-2.547 0-4.31 1.573-4.78 4.169h8.737zM159.146 8c5.76 0 8.854 4.208 8.854 9.517 0 .59-.118 1.927-.118 1.927h-13.79c.314 3.5 3.017 5.31 5.995 5.31 3.212 0 5.758-2.203 5.758-2.203l1.92 3.579s-3.056 2.87-8.03 2.87C153.112 29 149 24.203 149 18.5c0-6.174 4.192-10.5 10.146-10.5z"/>
        <path fill="#555" d="M186.16 16.72l-2.021-11.36c-.202-1.2-.486-3.36-.486-3.36h-.08s-1.01 2.16-1.698 3.36l-6.508 11.36h10.793zM167 28l16.047-28h1.82L190 28h-1.78l-1.737-9.68h-12.005L168.94 28H167zM197.792 8.469h1.642l-.586 3.242c-.157.898-.547 1.797-.547 1.797h.077C199.395 11.477 202.796 8 207.566 8 211.163 8 213 9.758 213 12.922c0 .82-.117 1.719-.312 2.695L210.303 28h-1.643l2.268-11.797c.196-1.016.352-2.031.352-2.969 0-2.5-1.525-3.632-3.753-3.632-4.887 0-9.149 4.297-10.126 9.257L195.642 28H194l3.792-19.531zM221.089 27.438c4.19 0 7.55-4.69 8.42-8.658l.198-.921h-1.265c-3.795 0-11.702.36-11.702 5.971 0 1.884 1.344 3.608 4.349 3.608m7.353-11.142h1.542c.237-1.323.277-1.964.277-2.565 0-2.364-1.028-4.088-4.428-4.088-3.44 0-6.01 1.924-6.01 1.924l-.712-1.523S221.762 8 225.834 8C229.825 8 232 9.803 232 13.49c0 .682-.079 1.443-.237 2.285l-2.451 12.744h-1.66l.513-2.605a12.59 12.59 0 0 1 .475-1.843h-.08c.08 0-2.53 4.929-7.63 4.929-3.242 0-5.93-1.843-5.93-5.01 0-6.492 7.907-7.694 13.442-7.694M236.111 23.625L240.435 0H242l-4.249 23.346a7.122 7.122 0 0 0-.111 1.154c0 1.83 1.043 1.909 1.826 1.909.298 0 .484-.04.484-.04l-.335 1.551s-.298.08-.634.08c-.969 0-2.981-.398-2.981-3.222 0-.318.037-.716.111-1.153M242.286 34.423c2.043 0 3.486-1.657 4.647-3.51l2.124-3.353L244.57 8h1.762l3.486 16.011c.2.947.36 1.854.36 1.854h.04s.522-.907 1.083-1.854L261.077 8H263l-15.185 24.45c-1.362 2.17-3.245 3.55-5.53 3.55-2.083 0-3.285-1.104-3.285-1.104l.962-1.301s.841.828 2.324.828M264.57 21.115l2.113-10.837H264l.285-1.536h2.682L268.107 3h1.706l-1.138 5.742H274l-.285 1.536h-5.325l-2.154 11.12a9.324 9.324 0 0 0-.203 1.981c0 3.558 2.113 4.043 3.617 4.043.732 0 1.179-.08 1.179-.08l-.325 1.577s-.325.081-.854.081c-2.154 0-5.324-.647-5.324-5.54 0-.687.08-1.455.244-2.345M280.088 0H282l-.574 2.92h-1.912l.574-2.92zm-1.34 8h1.607l-3.749 20H275l3.749-20zM295.048 8c4.859 0 6.952 2.845 6.952 2.845l-1.185 1.243s-1.896-2.445-5.688-2.445c-4.977 0-10.389 4.368-10.389 10.82 0 4.249 3.042 6.894 7.031 6.894 4.345 0 7.15-2.886 7.15-2.886l.632 1.523S296.509 29 291.848 29c-5.095 0-8.848-3.206-8.848-8.376C283 13.009 289.24 8 295.048 8"/>
        <g transform="translate(302 8)">
            <mask id="b" fill="#fff">
                <use xlink:href="#a"/>
            </mask>
            <path fill="#555" d="M1.585 16.802s1.959 2.36 6 2.36c2.53 0 5.509-1.456 5.509-4.287 0-4.09-9.591-3.382-9.591-8.847 0-3.894 3.795-5.86 7.264-5.86 4.163 0 5.918 2.123 5.918 2.123l-1.183 1.22s-1.429-1.73-4.775-1.73c-2.368 0-5.429 1.18-5.429 4.168 0 4.207 9.591 3.421 9.591 8.926 0 3.421-3.469 5.899-7.265 5.899-5.06 0-7.223-2.831-7.223-2.831l1.184-1.14z" mask="url(#b)"/>
        </g>
    </g>
</svg>
