<svg xmlns="http://www.w3.org/2000/svg" width="19" height="19" viewBox="0 0 19 19">
    <path fill="#FFF" fill-rule="nonzero" d="M13.854 11.578l-.198.346L19 17.318 17.318 19l-5.344-5.393-.346.247c-1.32.825-2.689 1.237-4.107 1.237-2.078 0-3.851-.742-5.32-2.226C.735 11.38 0 9.599 0 7.52 0 5.443.734 3.67 2.202 2.2 3.67.735 5.442 0 7.52 0c2.078 0 3.85.734 5.319 2.202 1.468 1.468 2.202 3.24 2.202 5.319a7.459 7.459 0 0 1-1.188 4.057zm-2.127-8.263C10.572 2.161 9.17 1.583 7.52 1.583c-1.65 0-3.051.578-4.206 1.732C2.161 4.47 1.583 5.872 1.583 7.521c0 1.65.578 3.051 1.732 4.206 1.155 1.154 2.557 1.731 4.206 1.731 1.65 0 3.051-.577 4.206-1.731 1.187-1.188 1.78-2.59 1.78-4.206 0-1.616-.593-3.018-1.78-4.206z"/>
</svg>
